<svg width="513" height="110" viewBox="0 0 513 110" fill="none" xmlns="http://www.w3.org/2000/svg">
<path d="M165.3 17.5C164.406 14.1948 162.661 11.1815 160.24 8.76027C157.819 6.33905 154.805 4.59438 151.5 3.69999C139.4 0.399994 90.7 0.399994 90.7 0.399994C90.7 0.399994 42 0.499994 29.9 3.79999C26.5948 4.69438 23.5815 6.43905 21.1603 8.86027C18.7391 11.2815 16.9944 14.2948 16.1 17.6C12.44 39.1 11.02 71.86 16.2 92.5C17.0944 95.8052 18.8391 98.8185 21.2603 101.24C23.6815 103.661 26.6948 105.406 30 106.3C42.1 109.6 90.8 109.6 90.8 109.6C90.8 109.6 139.5 109.6 151.6 106.3C154.905 105.406 157.919 103.661 160.34 101.24C162.761 98.8185 164.506 95.8052 165.4 92.5C169.26 70.97 170.45 38.23 165.3 17.5Z" fill="#32C3FF"/>
<path d="M75.2 78.4L115.6 55L75.2 31.6V78.4Z" fill="white"/>
<path d="M485.4 73V76.5L485.8 86.4C486.1 88.6 486.6 90.2 487.4 91.2C488.2 92.2 489.5 92.7 491.2 92.7C493.5 92.7 495.1 91.8 495.9 90C496.8 88.2 497.2 85.2 497.3 81.1L510.6 81.9C510.7 82.5 510.7 83.3 510.7 84.3C510.7 90.6 509 95.3 505.5 98.4C502 101.5 497.2 103.1 490.9 103.1C483.3 103.1 478 100.7 475 96C472 91.3 470.4 83.9 470.4 74V61.9C470.74 44.9 473.73 32.45 491.3 32.4C496.6 32.4 500.6 33.4 503.4 35.3C506.2 37.2 508.2 40.2 509.4 44.3C510.6 48.4 511.1 54 511.1 61.2V72.9H485.4V73ZM487.4 44.2C486.6 45.2 486.1 46.7 485.8 48.9C485.5 51.1 485.4 58.9 485.4 58.9V63.8H496.6V58.9C496.6 63.8 496.5 51.2 496.2 48.9C495.9 46.6 495.4 45 494.6 44.1C493.8 43.2 492.6 42.7 491 42.7C489.3 42.8 488.1 43.3 487.4 44.2Z" fill="#282828"/>
<path d="M410.5 33.7V102H398.5L397.2 93.6H396.9C393.6 99.9 388.7 103.1 382.2 103.1C370.43 103.07 369.12 93.1 369 84.7V33.7H384.4V83.8C384.4 86.8 384.7 89 385.4 90.3C386.82 93.08 390.5 92.37 392.5 91C393.655 90.2195 394.585 89.1509 395.2 87.9V33.7H410.5Z" fill="#282828"/>
<path d="M374.3 20.9H359V102H344V20.9H328.7V8.5H374.2V20.9H374.3ZM462.2 44.6C461.3 40.3 459.8 37.2 457.7 35.2C455.6 33.3 452.8 32.3 449.1 32.3C446.286 32.2938 443.535 33.1297 441.2 34.7C438.7 36.3 436.9 38.4 435.5 41H435.4V5H420.6V101.9H433.3L434.9 95.4H435.2C436.423 97.6891 438.258 99.5933 440.5 100.9C442.9 102.2 445.5 102.9 448.4 102.9C453.6 102.9 457.4 100.5 459.9 95.7C462.3 90.9 463.6 83.4 463.6 73.3V62.5C463.6 54.9 463.1 48.9 462.2 44.6ZM448.1 72.5C448.1 77.5 447.9 81.4 447.5 84.2C447.1 87 446.4 89 445.4 90.2C444.4 91.4 443.1 92 441.5 92C438.4 91.9 436.64 90.5 435.4 88.4V49.6C435.9 47.7 436.8 46.2 438.1 45C440.3 42.53 444.06 42.5 445.8 45C446.7 46.2 447.2 48.3 447.6 51.2C447.9 54.1 448.1 58.2 448.1 63.6V72.5Z" fill="#282828"/>
<rect x="187" y="8" width="15" height="94" fill="#282828"/>
<path d="M254.5 99.6C251.4 97.5 249.2 94.3 247.9 89.9C246.6 85.5 246 79.7 246 72.4V62.5C246 55.2 246.7 49.2 248.2 44.8C249.7 40.3 252 37.1 255.2 35.1C258.4 33.1 262.5 32 267.6 32C272.6 32 276.7 33 279.7 35.1C282.7 37.2 285 40.4 286.4 44.8C287.8 49.2 288.5 55.1 288.5 62.4V72.3C288.5 79.6 287.8 85.4 286.4 89.8C285 94.2 282.8 97.4 279.7 99.5C276.6 101.5 272.4 102.6 267.2 102.6C261.8 102.7 257.6 101.6 254.5 99.6ZM271.8 88.9C272.7 86.7 273.1 83 273.1 78V56.7C273.1 51.8 272.7 48.2 271.8 46C270.9 43.7 269.4 42.6 267.3 42.6C265.2 42.6 263.8 43.7 262.9 46C262 48.3 261.6 51.8 261.6 56.7V78C261.6 83 262 86.7 262.8 88.9C263.6 91.1 265.1 92.2 267.3 92.2C269.4 92.2 270.9 91.1 271.8 88.9Z" fill="#282828"/>
<path fill-rule="evenodd" clip-rule="evenodd" d="M228 52.1502C229.309 47.7948 233.289 42.8427 242.5 45.8032V31.022C239.45 30.7912 232.444 32.2859 228 39.8993V31.8032H214V101.803H228V52.1502Z" fill="#282828"/>
<path fill-rule="evenodd" clip-rule="evenodd" d="M310 39.4706V32H296V102H310V48.959C317.984 41.2345 320 45.6848 320 48.951V102H334V48.951V47V42.5474C334 40.8277 333.791 39.0809 332.949 37.5815C329.952 32.2441 322.599 27.5187 310 39.4706Z" fill="#282828"/>
</svg>
